<svg width="25" height="25" viewBox="0 0 25 25" fill="none" xmlns="http://www.w3.org/2000/svg">
<path d="M12.5 11.4496C11.4583 9.33931 8.62258 5.40715 5.98525 3.46852C3.45908 1.61075 2.49596 1.93219 1.86442 2.23067C1.13321 2.57308 1 3.74304 1 4.42985C1 5.11865 1.36225 10.07 1.598 10.8976C2.37904 13.6288 5.15629 14.5512 7.71504 14.2558C7.84537 14.2358 7.97858 14.2168 8.11275 14.1999C7.9805 14.2218 7.84825 14.2398 7.71504 14.2558C3.96604 14.8348 0.635833 16.2573 5.00296 21.3215C9.80708 26.5025 11.5867 20.2104 12.5 17.0209C13.4133 20.2104 14.4646 26.2759 19.9108 21.3215C24 17.0209 21.034 14.8348 17.285 14.2558C17.152 14.2404 17.0194 14.2218 16.8872 14.1999C17.0214 14.2168 17.1546 14.2358 17.285 14.2558C19.8437 14.5522 22.621 13.6288 23.402 10.8976C23.6377 10.071 24 5.11765 24 4.43085C24 3.74204 23.8668 2.57308 23.1356 2.22868C22.504 1.93119 21.5409 1.60975 19.0147 3.46652C16.3774 5.40815 13.5417 9.34031 12.5 11.4496Z" fill="currentColor"/>
</svg>
