<svg width="25" height="25" viewBox="0 0 25 25" fill="none" xmlns="http://www.w3.org/2000/svg">
<path fill-rule="evenodd" clip-rule="evenodd" d="M20.14 18.4908C18.5735 19.4502 16.7672 20.2041 14.7214 20.7523C12.4492 21.3611 10.3076 21.6052 8.29663 21.4844C6.28564 21.3638 4.57228 20.8391 3.15658 19.9106C1.74088 18.9822 0.786394 17.5975 0.293142 15.7566C-0.20294 13.9052 -0.0693851 12.2262 0.693804 10.7195C1.457 9.21278 2.68062 7.90968 4.36467 6.81015C6.04874 5.71063 8.0268 4.85646 10.299 4.24764C12.5606 3.64164 14.6936 3.39706 16.698 3.51392C18.0446 3.59243 19.2593 3.85264 20.3419 4.29453C20.8707 4.51033 21.368 4.76947 21.8338 5.07195C23.2533 5.99378 24.2097 7.37514 24.703 9.216C25.1963 11.0569 25.0594 12.734 24.2923 14.2474C24.1852 14.4588 24.0691 14.6662 23.9442 14.8698C23.8559 14.4724 23.6787 14.1257 23.4124 13.8301C23.2817 13.6849 23.1364 13.5516 22.9764 13.4301C22.6488 13.1814 22.2598 12.9825 21.8094 12.8332C21.1392 12.6111 20.3922 12.5 19.5687 12.5C18.7415 12.5 17.9917 12.6101 17.3195 12.8304C16.6473 13.0506 16.113 13.3819 15.7165 13.8243C15.3201 14.2667 15.1219 14.8249 15.1219 15.499C15.1219 16.1694 15.3201 16.7266 15.7165 17.171C16.113 17.6153 16.6473 17.9495 17.3195 18.1735C17.9917 18.3976 18.7415 18.5096 19.5687 18.5096C19.7635 18.5096 19.9538 18.5034 20.14 18.4908V18.4908ZM12.9733 17.2974C12.8163 17.4659 12.5395 17.645 12.1431 17.8346C11.7467 18.0242 11.2689 18.1841 10.7097 18.3142C10.1505 18.4445 9.54916 18.5096 8.90565 18.5096C8.34261 18.5096 7.79105 18.4551 7.25102 18.3459C6.71094 18.2367 6.2226 18.0634 5.78594 17.8259C5.34929 17.5885 5.0017 17.2782 4.74316 16.8952C4.48462 16.5121 4.35535 16.0468 4.35535 15.499C4.35535 14.9437 4.48462 14.4745 4.74316 14.0915C5.0017 13.7084 5.34929 13.4001 5.78594 13.1665C6.2226 12.9328 6.71094 12.7633 7.25102 12.658C7.79105 12.5526 8.34261 12.5 8.90565 12.5C9.55294 12.5 10.1505 12.5575 10.6982 12.6724C11.2459 12.7873 11.716 12.9376 12.1087 13.1234C12.5013 13.3091 12.7856 13.5073 12.9618 13.718L11.491 14.6832C11.2766 14.4496 10.951 14.2629 10.5144 14.1231C10.0777 13.9832 9.54724 13.9133 8.9229 13.9133C8.61647 13.9133 8.30715 13.9373 7.99501 13.9852C7.68287 14.0331 7.39657 14.1144 7.13612 14.2293C6.87566 14.3442 6.66593 14.5051 6.50697 14.712C6.34802 14.9188 6.26857 15.1811 6.26857 15.499C6.26857 15.8132 6.34802 16.0727 6.50697 16.2775C6.66593 16.4825 6.87566 16.6453 7.13612 16.7659C7.39657 16.8865 7.68287 16.9718 7.99501 17.0216C8.30715 17.0714 8.61647 17.0963 8.9229 17.0963C9.5357 17.0963 10.0672 17.0197 10.5172 16.8665C10.9672 16.7132 11.2842 16.537 11.4681 16.3379L12.9733 17.2974V17.2974ZM19.5687 17.0733C20.3693 17.0733 20.9898 16.9296 21.4303 16.6424C21.8707 16.3551 22.091 15.974 22.091 15.499C22.091 15.0126 21.8698 14.6306 21.4274 14.3529C20.985 14.0752 20.3654 13.9364 19.5687 13.9364C18.7683 13.9364 18.1449 14.0752 17.6987 14.3529C17.2525 14.6306 17.0293 15.0126 17.0293 15.499C17.0293 15.9817 17.2525 16.3647 17.6987 16.6481C18.1449 16.9316 18.7683 17.0733 19.5687 17.0733V17.0733Z" fill="currentColor"/>
</svg>
