<svg width="25" height="25" viewBox="0 0 25 25" fill="none" xmlns="http://www.w3.org/2000/svg">
<path fill-rule="evenodd" clip-rule="evenodd" d="M19.2836 17.8167C17.8933 18.6681 16.2904 19.3371 14.4747 19.8236C12.4583 20.364 10.5577 20.5805 8.77297 20.4734C6.98827 20.3663 5.46772 19.9007 4.21134 19.0767C2.95495 18.2527 2.10787 17.0239 1.67013 15.3901C1.22987 13.7471 1.3484 12.257 2.0257 10.9198C2.70301 9.5827 3.78894 8.42624 5.28348 7.45045C6.77803 6.47466 8.5335 5.71661 10.55 5.1763C12.5571 4.6385 14.45 4.42144 16.2289 4.52515C17.424 4.59483 18.502 4.82575 19.4628 5.21792C19.9321 5.40944 20.3733 5.63941 20.7867 5.90785C22.0465 6.72595 22.8953 7.95185 23.3331 9.58556C23.7708 11.2193 23.6494 12.7076 22.9686 14.0507C22.8735 14.2384 22.7705 14.4225 22.6596 14.6032C22.5814 14.2504 22.424 13.9428 22.1877 13.6804C22.0717 13.5516 21.9427 13.4332 21.8008 13.3254C21.51 13.1048 21.1648 12.9282 20.7651 12.7957C20.1703 12.5986 19.5074 12.5 18.7766 12.5C18.0424 12.5 17.377 12.5977 16.7804 12.7932C16.1839 12.9886 15.7097 13.2827 15.3579 13.6753C15.006 14.0679 14.8301 14.5633 14.8301 15.1616C14.8301 15.7564 15.006 16.251 15.3579 16.6453C15.7097 17.0396 16.1839 17.3362 16.7804 17.5351C17.377 17.7339 18.0424 17.8333 18.7766 17.8333C18.9494 17.8333 19.1184 17.8278 19.2836 17.8167V17.8167ZM12.9234 16.7575C12.784 16.9071 12.5384 17.066 12.1866 17.2343C11.8348 17.4025 11.4107 17.5444 10.9145 17.66C10.4182 17.7755 9.88454 17.8333 9.31345 17.8333C8.81377 17.8333 8.32427 17.7849 7.84502 17.688C7.36571 17.5912 6.93232 17.4373 6.5448 17.2266C6.15729 17.0159 5.84882 16.7405 5.61937 16.4006C5.38993 16.0607 5.2752 15.6476 5.2752 15.1616C5.2752 14.6687 5.38993 14.2523 5.61937 13.9124C5.84882 13.5724 6.15729 13.2988 6.5448 13.0915C6.93232 12.8841 7.36571 12.7337 7.84502 12.6402C8.32427 12.5467 8.81377 12.5 9.31345 12.5C9.8879 12.5 10.4182 12.551 10.9043 12.653C11.3904 12.7549 11.8076 12.8884 12.156 13.0532C12.5044 13.2181 12.7568 13.394 12.9132 13.581L11.6079 14.4376C11.4176 14.2302 11.1286 14.0645 10.7411 13.9404C10.3536 13.8163 9.88283 13.7543 9.32875 13.7543C9.05681 13.7543 8.7823 13.7756 8.50529 13.818C8.22827 13.8605 7.97419 13.9328 7.74305 14.0347C7.5119 14.1367 7.32577 14.2795 7.1847 14.4631C7.04363 14.6466 6.97312 14.8794 6.97312 15.1616C6.97312 15.4403 7.04363 15.6706 7.1847 15.8524C7.32577 16.0343 7.5119 16.1788 7.74305 16.2859C7.97419 16.3929 8.22827 16.4685 8.50529 16.5128C8.7823 16.557 9.05681 16.5791 9.32875 16.5791C9.87259 16.5791 10.3443 16.5111 10.7436 16.3751C11.143 16.2391 11.4243 16.0827 11.5875 15.906L12.9234 16.7575V16.7575ZM18.7766 16.5586C19.4871 16.5586 20.0377 16.4312 20.4287 16.1762C20.8195 15.9213 21.015 15.5831 21.015 15.1616C21.015 14.7299 20.8187 14.3908 20.4261 14.1444C20.0335 13.8979 19.4836 13.7747 18.7766 13.7747C18.0662 13.7747 17.513 13.8979 17.117 14.1444C16.721 14.3908 16.5229 14.7299 16.5229 15.1616C16.5229 15.5899 16.721 15.9298 17.117 16.1813C17.513 16.4329 18.0662 16.5586 18.7766 16.5586V16.5586Z" fill="currentColor"/>
</svg>
