<svg width="25" height="25" viewBox="0 0 25 25" fill="none" xmlns="http://www.w3.org/2000/svg">
<path fill-rule="evenodd" clip-rule="evenodd" d="M20.146 18.4926C18.579 19.4523 16.7722 20.2064 14.7258 20.7547C12.4529 21.3638 10.3107 21.6079 8.2991 21.4871C6.2875 21.3664 4.57363 20.8416 3.15752 19.9128C1.74139 18.9841 0.786628 17.599 0.293229 15.7576C-0.203 13.9057 -0.0694056 12.2261 0.69401 10.719C1.45743 9.21181 2.68141 7.90832 4.36596 6.80847C6.05053 5.70862 8.02918 4.85419 10.302 4.2452C12.5643 3.63901 14.6979 3.39437 16.7029 3.51125C18.0499 3.58979 19.265 3.85007 20.348 4.2921C20.8769 4.50797 21.3743 4.76719 21.8402 5.06975C23.2602 5.99186 24.2169 7.37362 24.7103 9.21503C25.2037 11.0564 25.0668 12.734 24.2995 14.2479C24.1923 14.4594 24.0762 14.6669 23.9513 14.8705C23.863 14.4729 23.6857 14.1262 23.4193 13.8304C23.2886 13.6853 23.1432 13.5519 22.9832 13.4304C22.6555 13.1816 22.2664 12.9827 21.8159 12.8333C21.1455 12.6111 20.3983 12.5 19.5746 12.5C18.747 12.5 17.997 12.6101 17.3246 12.8305C16.6522 13.0508 16.1178 13.3822 15.7212 13.8247C15.3246 14.2672 15.1264 14.8256 15.1264 15.4999C15.1264 16.1704 15.3246 16.7279 15.7212 17.1724C16.1178 17.6168 16.6522 17.9511 17.3246 18.1752C17.997 18.3994 18.747 18.5114 19.5746 18.5114C19.7693 18.5114 19.9598 18.5052 20.146 18.4926V18.4926ZM12.9772 17.2988C12.8201 17.4673 12.5433 17.6465 12.1467 17.8361C11.7502 18.0258 11.2722 18.1858 10.7129 18.316C10.1535 18.4462 9.55199 18.5114 8.90829 18.5114C8.34508 18.5114 7.79336 18.4568 7.25317 18.3476C6.71293 18.2384 6.22444 18.0651 5.78765 17.8275C5.35088 17.59 5.00318 17.2796 4.74456 16.8965C4.48595 16.5133 4.35664 16.0478 4.35664 15.4999C4.35664 14.9444 4.48595 14.4751 4.74456 14.0919C5.00318 13.7088 5.35088 13.4004 5.78765 13.1667C6.22444 12.9329 6.71293 12.7634 7.25317 12.658C7.79336 12.5527 8.34508 12.5 8.90829 12.5C9.55578 12.5 10.1535 12.5575 10.7014 12.6724C11.2492 12.7874 11.7195 12.9378 12.1122 13.1236C12.505 13.3094 12.7894 13.5076 12.9657 13.7184L11.4945 14.6839C11.2799 14.4502 10.9542 14.2634 10.5175 14.1236C10.0807 13.9837 9.55007 13.9138 8.92554 13.9138C8.61902 13.9138 8.30962 13.9378 7.99738 13.9856C7.68515 14.0335 7.39877 14.1149 7.13823 14.2298C6.8777 14.3448 6.6679 14.5057 6.5089 14.7126C6.3499 14.9195 6.27043 15.1819 6.27043 15.4999C6.27043 15.8142 6.3499 16.0737 6.5089 16.2787C6.6679 16.4836 6.8777 16.6465 7.13823 16.7672C7.39877 16.8878 7.68515 16.9731 7.99738 17.0229C8.30962 17.0728 8.61902 17.0976 8.92554 17.0976C9.53853 17.0976 10.0702 17.021 10.5203 16.8678C10.9705 16.7145 11.2875 16.5382 11.4715 16.339L12.9772 17.2988V17.2988ZM19.5746 17.0746C20.3753 17.0746 20.996 16.9309 21.4366 16.6436C21.8772 16.3563 22.0975 15.9751 22.0975 15.4999C22.0975 15.0134 21.8763 14.6312 21.4338 14.3534C20.9912 14.0757 20.3715 13.9368 19.5746 13.9368C18.7738 13.9368 18.1503 14.0757 17.7039 14.3534C17.2576 14.6312 17.0344 15.0134 17.0344 15.4999C17.0344 15.9827 17.2576 16.3658 17.7039 16.6494C18.1503 16.9329 18.7738 17.0746 19.5746 17.0746V17.0746Z" fill="currentColor"/>
</svg>
