<svg width="25" height="25" viewBox="0 0 25 25" fill="none" xmlns="http://www.w3.org/2000/svg">
<path d="m 22.2515,9.37383 h -5.4396 c -0.655,0 -1.1862,-0.53111 -1.1862,-1.18612 V 2.7485 c 0,-1.05668 1.2777,-1.58594 2.0249,-0.83876 l 5.4396,5.43922 c 0.7472,0.74719 0.2181,2.02487 -0.8387,2.02487 z m 0,9.37777 h -5.4396 c -0.655,0 -1.1862,-0.531 -1.1862,-1.1861 v -5.4392 c 0,-1.0567 1.2777,-1.5859 2.0249,-0.8387 l 5.4396,5.4392 c 0.7472,0.7472 0.2181,2.0248 -0.8387,2.0248 z M 12.8866,9.37126 H 7.51497 C 6.8681,9.37126 6.34358,8.84687 6.34358,8.19993 V 2.82871 c 0,-1.0435 1.26175,-1.56604 1.99959,-0.82825 l 5.37163,5.37122 c 0.7379,0.73789 0.2154,1.99958 -0.8282,1.99958 z m 0.0041,1.56664 H 2.73214 C 2.08478,10.9379 1.56,11.4626 1.56,12.11 v 10.1578 c 0,0.6473 0.52478,1.172 1.17214,1.172 H 12.8907 c 0.6474,0 1.1722,-0.5247 1.1722,-1.172 V 12.11 c 0,-0.6474 -0.5248,-1.1721 -1.1722,-1.1721 z m -8.20498,9.3765 c -0.86313,0 -1.56286,-0.6997 -1.56286,-1.5628 0,-0.863 0.69973,-1.5627 1.56286,-1.5627 0.86311,0 1.56286,0.6997 1.56286,1.5627 0,0.8631 -0.69975,1.5628 -1.56286,1.5628 z m 3.90714,0 c -0.8631,0 -1.56286,-0.6997 -1.56286,-1.5628 0,-0.863 0.69976,-1.5627 1.56286,-1.5627 0.86311,0 1.56284,0.6997 1.56284,1.5627 0,0.8631 -0.69973,1.5628 -1.56284,1.5628 z" fill="currentColor"/>
</svg>
