<svg width="25" height="25" viewBox="0 0 25 25" fill="none" xmlns="http://www.w3.org/2000/svg">
<path d="M22.7051 8.74561C22.7051 3.99951 19.5942 2.60791 19.5942 2.60791C16.5415 1.20654 8.43408 1.22119 5.41064 2.60791C5.41064 2.60791 2.29931 3.99951 2.29931 8.74561C2.29931 14.395 1.97705 21.4116 7.45703 22.8618C9.43506 23.3843 11.1348 23.4966 12.5024 23.4185C14.9834 23.2817 16.3755 22.5347 16.3755 22.5347L16.2925 20.7329C16.2925 20.7329 14.5195 21.2896 12.5269 21.2261C10.5537 21.1577 8.47412 21.0112 8.15039 18.5894C8.12037 18.3644 8.10569 18.1376 8.10644 17.9106C12.2876 18.9312 15.853 18.355 16.8345 18.2378C19.5747 17.9106 21.9614 16.2212 22.2656 14.6782C22.7441 12.2466 22.7051 8.74561 22.7051 8.74561ZM19.0371 14.8589H16.7603V9.28271C16.7603 6.85596 13.6353 6.76318 13.6353 9.61963V12.6714H11.373V9.61914C11.373 6.7627 8.24805 6.85547 8.24805 9.28223V14.8584H5.96631C5.96631 8.89648 5.7124 7.63672 6.86523 6.31348C8.12988 4.90234 10.7627 4.80957 11.9351 6.61133L12.5015 7.56348L13.0679 6.61133C14.2451 4.7998 16.8823 4.91211 18.1377 6.31348C19.2954 7.64648 19.0361 8.90137 19.0361 14.8584L19.0371 14.8589Z" fill="currentColor"/>
</svg>
