<svg width="25" height="25" viewBox="0 0 25 25" fill="none" xmlns="http://www.w3.org/2000/svg">
<path d="M21.0938 1.5625H3.90625C2.6123 1.5625 1.5625 2.6123 1.5625 3.90625V21.0938C1.5625 22.3877 2.6123 23.4375 3.90625 23.4375H21.0938C22.3877 23.4375 23.4375 22.3877 23.4375 21.0938V3.90625C23.4375 2.6123 22.3877 1.5625 21.0938 1.5625ZM17.0752 19.3457C16.6602 19.79 15.5518 20.3125 14.1016 20.3125C10.415 20.3125 9.61426 17.6025 9.61426 16.0205V11.626H8.16406C7.99805 11.626 7.86133 11.4893 7.86133 11.3232V9.24805C7.86133 9.02832 7.99805 8.83301 8.20801 8.75977C10.1025 8.09082 10.6934 6.44043 10.7813 5.18555C10.8057 4.84863 10.9814 4.6875 11.2695 4.6875H13.4326C13.5986 4.6875 13.7354 4.82422 13.7354 4.99023V8.50586H16.2695C16.4355 8.50586 16.5723 8.64258 16.5723 8.80859V11.3037C16.5723 11.4697 16.4355 11.6064 16.2695 11.6064H13.7256V15.6738C13.7256 16.7187 14.4482 17.3096 15.8008 16.7676C15.9473 16.709 16.0742 16.6699 16.1914 16.6992C16.2988 16.7236 16.3672 16.8018 16.416 16.9385L17.0898 18.9014C17.1387 19.0576 17.1875 19.2285 17.0752 19.3457V19.3457Z" fill="currentColor"/>
</svg>
